<svg width="20" height="16" viewBox="0 0 20 16" xmlns="http://www.w3.org/2000/svg">
<path d="M19.8084 4.99269V13.6845C19.8084 14.1662 19.6369 14.5785 19.2939 14.9215C18.9509 15.2645 18.5386 15.436 18.0569 15.436H1.94308C1.46142 15.436 1.04908 15.2645 0.706079 14.9215C0.363076 14.5785 0.191574 14.1662 0.191574 13.6845V4.99269C0.512683 5.35028 0.881229 5.66774 1.29721 5.94507C3.93907 7.74036 5.7526 8.99925 6.73782 9.72175C7.15381 10.0283 7.49134 10.2673 7.75041 10.4388C8.00949 10.6103 8.35432 10.7854 8.7849 10.9642C9.21547 11.143 9.61686 11.2324 9.98906 11.2324H10H10.011C10.3831 11.2324 10.7845 11.143 11.2151 10.9642C11.6457 10.7854 11.9905 10.6103 12.2496 10.4388C12.5087 10.2673 12.8462 10.0283 13.2622 9.72175C14.5028 8.8241 16.32 7.56521 18.7137 5.94507C19.1297 5.66045 19.4946 5.34299 19.8084 4.99269ZM19.8084 1.77429C19.8084 2.35083 19.6296 2.90183 19.272 3.42728C18.9144 3.95273 18.4693 4.40155 17.9365 4.77375C15.1925 6.67851 13.4848 7.86442 12.8134 8.33149C12.7404 8.38258 12.5853 8.49387 12.3481 8.66537C12.1109 8.83687 11.9139 8.97554 11.757 9.08136C11.6001 9.18718 11.4103 9.30577 11.1877 9.43713C10.9652 9.56849 10.7553 9.66702 10.5583 9.7327C10.3613 9.79838 10.1788 9.83122 10.011 9.83122H10H9.98906C9.8212 9.83122 9.63875 9.79838 9.44171 9.7327C9.24467 9.66702 9.03485 9.56849 8.81226 9.43713C8.58968 9.30577 8.39993 9.18718 8.24302 9.08136C8.08612 8.97554 7.88907 8.83687 7.65189 8.66537C7.41471 8.49387 7.25963 8.38258 7.18665 8.33149C6.52254 7.86442 5.56651 7.19849 4.31856 6.33368C3.07061 5.46888 2.32257 4.9489 2.07444 4.77375C1.62197 4.46723 1.19504 4.04578 0.793654 3.50938C0.392267 2.97298 0.191574 2.4749 0.191574 2.01513C0.191574 1.44589 0.343006 0.971522 0.645871 0.59203C0.948735 0.212536 1.38114 0.02279 1.94308 0.02279H18.0569C18.5313 0.02279 18.9418 0.194291 19.2885 0.537294C19.6351 0.880298 19.8084 1.29263 19.8084 1.77429Z" />
</svg>
