<svg width="17" height="16" viewBox="0 0 17 16" xmlns="http://www.w3.org/2000/svg">
<path d="M4.3719 5.25763V15.0212H1.12066V5.25763H4.3719ZM4.57879 2.24285C4.58536 2.72233 4.41951 3.12299 4.08125 3.44483C3.743 3.76666 3.298 3.92758 2.74628 3.92758H2.72658C2.18799 3.92758 1.75449 3.76666 1.42608 3.44483C1.09768 3.12299 0.933472 2.72233 0.933472 2.24285C0.933472 1.75681 1.1026 1.35451 1.44086 1.03596C1.77912 0.717402 2.22083 0.558125 2.76598 0.558125C3.31114 0.558125 3.74792 0.717402 4.07633 1.03596C4.40474 1.35451 4.57222 1.75681 4.57879 2.24285ZM16.0665 9.42512V15.0212H12.8251V9.7995C12.8251 9.10985 12.6921 8.56962 12.4261 8.17881C12.1601 7.78801 11.7446 7.59261 11.1798 7.59261C10.766 7.59261 10.4195 7.70591 10.1404 7.93251C9.86122 8.15911 9.65268 8.4399 9.51475 8.77487C9.4425 8.97192 9.40638 9.23793 9.40638 9.5729V15.0212H6.165C6.17813 12.4005 6.1847 10.2757 6.1847 8.6468C6.1847 7.0179 6.18142 6.04581 6.17485 5.73054L6.165 5.25763H9.40638V6.67635H9.38667C9.51804 6.46617 9.65268 6.28226 9.79061 6.12463C9.92854 5.96699 10.1141 5.79622 10.3473 5.61231C10.5804 5.4284 10.8661 5.28555 11.2044 5.18374C11.5427 5.08193 11.9187 5.03103 12.3325 5.03103C13.4556 5.03103 14.3588 5.40377 15.0418 6.14926C15.7249 6.89474 16.0665 7.9867 16.0665 9.42512Z"/>
</svg>
