<svg width="134" height="29" viewBox="0 0 134 29" fill="none" xmlns="http://www.w3.org/2000/svg">
<path d="M28.5312 10.7412C28.5312 9.40527 28.5283 8.07812 28.5225 6.75977C28.5225 5.44141 28.5225 4.11719 28.5225 2.78711C28.5225 2.38281 28.4932 2.09277 28.4346 1.91699C28.3174 1.89355 28.1943 1.88184 28.0654 1.88184C27.9365 1.88184 27.8076 1.88184 27.6787 1.88184H26.5977V0.668945C26.9844 0.633789 27.4092 0.604492 27.8721 0.581055C28.3408 0.557617 28.8154 0.540039 29.2959 0.52832C29.7822 0.510742 30.2656 0.499023 30.7461 0.493164C31.2324 0.487305 31.6865 0.484375 32.1084 0.484375C32.9229 0.484375 33.6758 0.537109 34.3672 0.642578C35.0586 0.742187 35.6533 0.929688 36.1514 1.20508C36.6553 1.47461 37.0479 1.84375 37.3291 2.3125C37.6104 2.78125 37.751 3.37891 37.751 4.10547C37.751 4.49219 37.6865 4.84961 37.5576 5.17773C37.4287 5.5 37.2441 5.79297 37.0039 6.05664C36.7695 6.32031 36.4824 6.55176 36.1426 6.75098C35.8086 6.9502 35.4336 7.12012 35.0176 7.26074C35.4395 7.41895 35.7998 7.62988 36.0986 7.89355C36.3975 8.15137 36.6553 8.46191 36.8721 8.8252C37.0947 9.18848 37.2852 9.60449 37.4434 10.0732C37.6016 10.5361 37.751 11.0547 37.8916 11.6289C37.9502 11.6289 38.0322 11.6289 38.1377 11.6289C38.2432 11.623 38.3604 11.6201 38.4893 11.6201C38.624 11.6201 38.7617 11.6201 38.9023 11.6201C39.0488 11.6143 39.1865 11.6113 39.3154 11.6113L39.2451 13.1318C38.999 13.1553 38.7236 13.1787 38.4189 13.2021C38.1143 13.2314 37.8154 13.2461 37.5225 13.2461C36.9541 13.2461 36.4854 13.1436 36.1162 12.9385C35.7471 12.7275 35.4658 12.3906 35.2725 11.9277C35.0615 11.4297 34.8828 10.9668 34.7363 10.5391C34.5957 10.1113 34.458 9.72461 34.3232 9.37891C34.1885 9.0332 34.0449 8.73438 33.8926 8.48242C33.7461 8.23047 33.5645 8.02832 33.3477 7.87598C33.0371 7.82324 32.709 7.7998 32.3633 7.80566C32.0176 7.80566 31.6777 7.7998 31.3438 7.78809V10.7236C31.3438 10.9287 31.3496 11.1104 31.3613 11.2686C31.3789 11.4209 31.4023 11.5586 31.4316 11.6816C31.5488 11.6992 31.6719 11.7109 31.8008 11.7168C31.9297 11.7168 32.0615 11.7168 32.1963 11.7168H32.8994V13.1143C32.3838 13.0674 31.9004 13.0352 31.4492 13.0176C31.0039 13.0059 30.5703 13 30.1484 13C29.627 13 29.0967 13.0059 28.5576 13.0176C28.0244 13.0352 27.4561 13.0674 26.8525 13.1143V11.7168H27.6084C27.7607 11.7168 27.9043 11.7168 28.0391 11.7168C28.1738 11.7109 28.3057 11.6992 28.4346 11.6816C28.4639 11.5762 28.4873 11.4473 28.5049 11.2949C28.5225 11.1367 28.5312 10.9521 28.5312 10.7412ZM32.1787 1.88184H31.3438V6.54883C31.4316 6.55469 31.5195 6.55762 31.6074 6.55762C31.7012 6.55762 31.7979 6.55762 31.8975 6.55762C32.4131 6.55762 32.8584 6.5166 33.2334 6.43457C33.6084 6.34668 33.916 6.20898 34.1562 6.02148C34.4023 5.83398 34.584 5.58789 34.7012 5.2832C34.8184 4.97852 34.877 4.60938 34.877 4.17578C34.877 3.74805 34.8271 3.39062 34.7275 3.10352C34.6279 2.81055 34.4697 2.57324 34.2529 2.3916C34.0361 2.20996 33.7549 2.08105 33.4092 2.00488C33.0693 1.92285 32.6592 1.88184 32.1787 1.88184ZM44.7822 1.96973V6.04785H46.6982C46.8975 6.04785 47.0557 6.0332 47.1729 6.00391C47.29 5.97461 47.3867 5.92188 47.4629 5.8457C47.5391 5.76953 47.6006 5.66406 47.6475 5.5293C47.7002 5.38867 47.7588 5.21289 47.8232 5.00195H48.6934C48.6934 5.58789 48.6875 6.17383 48.6758 6.75977C48.6699 7.33984 48.6582 7.90527 48.6406 8.45605C48.6113 8.45605 48.5791 8.45898 48.5439 8.46484C48.5146 8.46484 48.4824 8.46484 48.4473 8.46484C48.3711 8.46484 48.2773 8.46484 48.166 8.46484C48.0547 8.45898 47.9053 8.45605 47.7178 8.45605C47.6533 8.22168 47.5918 8.03125 47.5332 7.88477C47.4746 7.73828 47.4102 7.62402 47.3398 7.54199C47.2754 7.4541 47.2021 7.39551 47.1201 7.36621C47.0381 7.33105 46.9414 7.31348 46.8301 7.31348H44.7822V10.7236C44.7822 10.9287 44.7881 11.1104 44.7998 11.2686C44.8174 11.4209 44.8408 11.5586 44.8701 11.6816C44.9756 11.6992 45.084 11.7109 45.1953 11.7168C45.3125 11.7168 45.4355 11.7168 45.5645 11.7168H46.417V13.1143C45.8545 13.085 45.3301 13.0586 44.8438 13.0352C44.3574 13.0117 43.8857 13 43.4287 13C42.9307 13 42.4238 13.0117 41.9082 13.0352C41.3926 13.0586 40.8418 13.085 40.2559 13.1143V11.7168H41.1611C41.2959 11.7168 41.4219 11.7168 41.5391 11.7168C41.6562 11.7109 41.7705 11.6992 41.8818 11.6816C41.9111 11.5762 41.9346 11.4473 41.9521 11.2949C41.9697 11.1367 41.9785 10.9521 41.9785 10.7412C41.9785 9.43457 41.9756 8.13379 41.9697 6.83887C41.9697 5.53809 41.9697 4.23438 41.9697 2.92773C41.9697 2.73438 41.9609 2.56152 41.9434 2.40918C41.9316 2.25684 41.9111 2.13086 41.8818 2.03125C41.7705 2.00781 41.6562 1.99609 41.5391 1.99609C41.4277 1.99023 41.3047 1.9873 41.1699 1.9873H40.168V0.80957C40.6895 0.762695 41.1816 0.724609 41.6445 0.695312C42.1133 0.666016 42.582 0.645508 43.0508 0.633789C43.5254 0.616211 44.0176 0.604492 44.5273 0.598633C45.0371 0.586914 45.5938 0.581055 46.1973 0.581055C46.8066 0.581055 47.4775 0.581055 48.21 0.581055C48.9424 0.581055 49.7686 0.581055 50.6885 0.581055L50.873 1.75C50.9199 2.04883 50.9609 2.3418 50.9961 2.62891C51.0371 2.91602 51.0664 3.15918 51.084 3.3584L49.4756 3.46387C49.4639 3.32324 49.4287 3.13574 49.3701 2.90137C49.3115 2.66699 49.2324 2.40332 49.1328 2.11035C48.9863 2.06934 48.8428 2.03711 48.7021 2.01367C48.5674 1.99023 48.4268 1.97266 48.2803 1.96094C48.1396 1.94922 47.9873 1.94336 47.8232 1.94336C47.6592 1.9375 47.4775 1.93457 47.2783 1.93457C47.1494 1.93457 47.0088 1.93457 46.8564 1.93457C46.71 1.93457 46.5371 1.9375 46.3379 1.94336C46.1445 1.94336 45.9189 1.94629 45.6611 1.95215C45.4092 1.95801 45.1162 1.96387 44.7822 1.96973Z" fill="#FFF"/>
<path d="M38.0874 14.9091V28H35.6967L30.0014 19.7607H29.9055V28H27.1378V14.9091H29.5668L35.2173 23.142H35.3324V14.9091H38.0874ZM49.0545 19.1406C48.965 18.8295 48.8393 18.5547 48.6774 18.3161C48.5154 18.0732 48.3173 17.8686 48.0829 17.7024C47.8528 17.532 47.5886 17.402 47.2903 17.3125C46.9963 17.223 46.6703 17.1783 46.3123 17.1783C45.6433 17.1783 45.0552 17.3445 44.5481 17.6768C44.0453 18.0092 43.6532 18.4929 43.372 19.1278C43.0907 19.7585 42.9501 20.5298 42.9501 21.4418C42.9501 22.3537 43.0886 23.1293 43.3656 23.7685C43.6426 24.4077 44.0346 24.8956 44.5417 25.2322C45.0488 25.5646 45.6475 25.7308 46.3379 25.7308C46.9643 25.7308 47.4991 25.62 47.9423 25.3984C48.3897 25.1726 48.7306 24.8551 48.965 24.446C49.2037 24.0369 49.323 23.5533 49.323 22.995L49.8855 23.0781H46.5105V20.9943H51.9885V22.6435C51.9885 23.794 51.7456 24.7827 51.2598 25.6094C50.774 26.4318 50.1049 27.0668 49.2527 27.5142C48.4004 27.9574 47.4245 28.179 46.3251 28.179C45.0978 28.179 44.0197 27.9084 43.0907 27.3672C42.1618 26.8217 41.4373 26.0483 40.9174 25.0469C40.4018 24.0412 40.144 22.848 40.144 21.4673C40.144 20.4062 40.2974 19.4602 40.6042 18.6293C40.9153 17.794 41.35 17.0866 41.9082 16.5071C42.4664 15.9276 43.1163 15.4865 43.8578 15.1839C44.5993 14.8814 45.4025 14.7301 46.2676 14.7301C47.0091 14.7301 47.6994 14.8388 48.3386 15.0561C48.9778 15.2692 49.5446 15.5717 50.0389 15.9638C50.5375 16.3558 50.9444 16.8224 51.2598 17.3636C51.5751 17.9006 51.7775 18.4929 51.867 19.1406H49.0545ZM54.0675 28V14.9091H62.8885V17.1911H56.8352V20.3104H62.4347V22.5923H56.8352V25.718H62.9141V28H54.0675ZM76.0385 14.9091V28H73.6479L67.9526 19.7607H67.8567V28H65.089V14.9091H67.5179L73.1685 23.142H73.2836V14.9091H76.0385ZM78.3253 28V14.9091H81.093V20.3104H86.7116V14.9091H89.473V28H86.7116V22.5923H81.093V28H78.3253ZM94.0114 28H91.0455L95.5646 14.9091H99.1314L103.644 28H100.678L97.3991 17.9006H97.2969L94.0114 28ZM93.826 22.8544H100.832V25.0149H93.826V22.8544ZM105.22 28V14.9091H110.385C111.373 14.9091 112.217 15.0859 112.916 15.4396C113.619 15.7891 114.154 16.2855 114.52 16.929C114.891 17.5682 115.076 18.3203 115.076 19.1854C115.076 20.0547 114.889 20.8026 114.514 21.429C114.139 22.0511 113.596 22.5284 112.884 22.8608C112.176 23.1932 111.32 23.3594 110.314 23.3594H106.856V21.1349H109.867C110.395 21.1349 110.834 21.0625 111.184 20.9176C111.533 20.7727 111.793 20.5554 111.963 20.2656C112.138 19.9759 112.225 19.6158 112.225 19.1854C112.225 18.7507 112.138 18.3842 111.963 18.0859C111.793 17.7876 111.531 17.5618 111.177 17.4084C110.828 17.2507 110.387 17.1719 109.854 17.1719H107.988V28H105.22ZM112.289 22.0426L115.543 28H112.488L109.304 22.0426H112.289ZM119.8 14.9091V28H117.032V14.9091H119.8ZM124.334 28H121.368L125.887 14.9091H129.454L133.966 28H131.001L127.721 17.9006H127.619L124.334 28ZM124.148 22.8544H131.154V25.0149H124.148V22.8544Z" fill="#EB8212"/>
<path d="M11.9688 0.402344H23.7461L24.2344 2.92188C24.3516 3.5599 24.4622 4.19141 24.5664 4.81641C24.6706 5.44141 24.7552 5.96224 24.8203 6.37891L21.2266 6.71094C21.1484 6.24219 21.0573 5.77344 20.9531 5.30469C20.862 4.83594 20.7253 4.36068 20.543 3.87891C19.9049 3.70964 19.2148 3.59245 18.4727 3.52734C17.7305 3.44922 16.8841 3.41016 15.9336 3.41016C15.6862 3.41016 15.4062 3.41016 15.0938 3.41016C14.7943 3.41016 14.4427 3.41667 14.0391 3.42969C13.6354 3.42969 13.1667 3.4362 12.6328 3.44922C12.099 3.46224 11.4805 3.47526 10.7773 3.48828V12.6094H15.3086C15.7253 12.6094 16.0573 12.5768 16.3047 12.5117C16.5651 12.4466 16.7734 12.3294 16.9297 12.1602C17.099 11.9779 17.2357 11.7305 17.3398 11.418C17.457 11.1055 17.5807 10.7083 17.7109 10.2266H19.6641C19.6641 11.5286 19.651 12.8307 19.625 14.1328C19.599 15.4219 19.5664 16.6784 19.5273 17.9023C19.4102 17.9154 19.293 17.9219 19.1758 17.9219C19.0586 17.9219 18.9414 17.9219 18.8242 17.9219C18.6029 17.9219 18.375 17.9219 18.1406 17.9219C17.9193 17.9089 17.6979 17.9023 17.4766 17.9023C17.3333 17.3815 17.1966 16.9518 17.0664 16.6133C16.9492 16.2747 16.8125 16.0078 16.6562 15.8125C16.513 15.6172 16.3503 15.487 16.168 15.4219C15.9857 15.3438 15.7708 15.3047 15.5234 15.3047H10.7773V25.1484H18.0234C18.6354 25.1484 19.1693 25.1094 19.625 25.0312C20.0938 24.9401 20.4388 24.8229 20.6602 24.6797C20.7643 24.3932 20.862 23.9831 20.9531 23.4492C21.0443 22.9154 21.1419 22.1992 21.2461 21.3008C21.819 21.3138 22.418 21.3268 23.043 21.3398C23.681 21.3398 24.3451 21.3398 25.0352 21.3398L24.9766 23.8203C24.9505 24.4714 24.918 25.1354 24.8789 25.8125C24.8529 26.4766 24.8203 27.0885 24.7812 27.6484C24.2083 27.7396 23.6354 27.8177 23.0625 27.8828C22.5026 27.9479 21.9102 28 21.2852 28.0391C20.6602 28.0781 19.9961 28.1042 19.293 28.1172C18.6029 28.1432 17.8477 28.1562 17.0273 28.1562C16.0247 28.1562 15.0807 28.1497 14.1953 28.1367C13.3099 28.1237 12.457 28.1042 11.6367 28.0781C10.8164 28.0651 10.0221 28.0456 9.25391 28.0195C8.4987 28.0065 7.75 28 7.00781 28C5.78385 28 4.64453 28.0065 3.58984 28.0195C2.54818 28.0326 1.5 28.0716 0.445312 28.1367V25.1484H2.63281C2.94531 25.1484 3.23828 25.1484 3.51172 25.1484C3.79818 25.1354 4.07161 25.1094 4.33203 25.0703C4.39714 24.8099 4.44922 24.5234 4.48828 24.2109C4.52734 23.8854 4.54688 23.5143 4.54688 23.0977V5.65625C4.54688 5.21354 4.52083 4.82943 4.46875 4.50391C4.42969 4.17839 4.3776 3.88542 4.3125 3.625C4.0651 3.57292 3.80469 3.54688 3.53125 3.54688C3.25781 3.53385 2.96484 3.52734 2.65234 3.52734H0.328125V0.929688C2.15104 0.734375 4.03906 0.597656 5.99219 0.519531C7.95833 0.441406 9.95052 0.402344 11.9688 0.402344Z" fill="#EB8212"/>
</svg>
